<svg width="137" height="31" viewBox="0 0 137 31" fill="none" xmlns="http://www.w3.org/2000/svg">
<g opacity="0.6">
<path d="M33.4969 7.2901H36.6525V22.5985H33.4969V7.2901Z" fill="#1D2130"/>
<path d="M38.4197 17.3544C38.4197 16.253 38.7444 15.1764 39.3526 14.2611C39.9608 13.3458 40.8251 12.6329 41.836 12.2129C42.8469 11.7929 43.9589 11.6846 45.0309 11.9018C46.103 12.119 47.0869 12.6519 47.8579 13.4329C48.629 14.214 49.1524 15.208 49.3619 16.2889C49.5714 17.3699 49.4575 18.4892 49.0347 19.5049C48.6119 20.5207 47.8992 21.3871 46.9869 21.9944C46.0747 22.6017 45.0039 22.9226 43.9104 22.9163C43.1851 22.922 42.4659 22.7818 41.7952 22.5039C41.1244 22.226 40.5154 21.816 40.004 21.298C39.4926 20.7799 39.089 20.1643 38.817 19.4871C38.5449 18.8099 38.4098 18.0848 38.4197 17.3544ZM46.3297 17.3544C46.3172 16.8796 46.1661 16.419 45.8952 16.0302C45.6242 15.6414 45.2455 15.3418 44.8063 15.1687C44.3671 14.9955 43.887 14.9567 43.426 15.0569C42.9651 15.1572 42.5437 15.3921 42.2145 15.7323C41.8854 16.0725 41.6632 16.5029 41.5757 16.9696C41.4881 17.4364 41.5392 17.9187 41.7224 18.3564C41.9056 18.7941 42.2129 19.1676 42.6058 19.4303C42.9987 19.693 43.4598 19.8332 43.9314 19.8334C44.2525 19.8397 44.5714 19.7792 44.8683 19.6558C45.1651 19.5323 45.4335 19.3485 45.6566 19.1158C45.8797 18.8832 46.0527 18.6067 46.1649 18.3036C46.2771 18.0005 46.326 17.6774 46.3086 17.3544H46.3297Z" fill="#1D2130"/>
<path d="M61.8867 12.1104V22.0793C61.8867 25.5965 59.1519 27.0903 56.3855 27.0903C55.4097 27.171 54.431 26.9757 53.5594 26.5265C52.6878 26.0773 51.9581 25.392 51.4523 24.5477L54.1135 23.001C54.3291 23.4389 54.6721 23.8002 55.0969 24.0368C55.5216 24.2734 56.0078 24.374 56.4907 24.3253C56.7983 24.3634 57.1105 24.3327 57.405 24.2352C57.6994 24.1377 57.9689 23.9758 58.194 23.7612C58.4191 23.5466 58.5944 23.2846 58.7072 22.9938C58.8201 22.7031 58.8678 22.3908 58.8468 22.0793V21.1153C58.4796 21.5637 58.0137 21.9197 57.486 22.1551C56.9583 22.3905 56.3834 22.4988 55.807 22.4713C54.4121 22.4713 53.0744 21.9132 52.0881 20.9199C51.1018 19.9265 50.5477 18.5792 50.5477 17.1743C50.5477 15.7695 51.1018 14.4221 52.0881 13.4288C53.0744 12.4354 54.4121 11.8773 55.807 11.8773C56.3834 11.8498 56.9583 11.9581 57.486 12.1935C58.0137 12.4289 58.4796 12.7849 58.8468 13.2333V12.1739L61.8867 12.1104ZM58.8468 17.1425C58.8678 16.6357 58.7378 16.1341 58.4735 15.7023C58.2091 15.2704 57.8226 14.9281 57.3636 14.7193C56.9045 14.5106 56.394 14.4448 55.8975 14.5307C55.4011 14.6165 54.9415 14.8499 54.5779 15.2009C54.2142 15.5519 53.9631 16.0044 53.8569 16.5003C53.7507 16.9962 53.7941 17.5127 53.9817 17.9835C54.1693 18.4543 54.4924 18.8578 54.9095 19.1422C55.3267 19.4265 55.8187 19.5787 56.3224 19.5791C56.651 19.603 56.981 19.5571 57.291 19.4446C57.6009 19.332 57.884 19.1552 58.1219 18.9255C58.3598 18.6959 58.5473 18.4186 58.6721 18.1115C58.797 17.8043 58.8565 17.4743 58.8468 17.1425Z" fill="#1D2130"/>
<path d="M63.6643 17.3544C63.6643 16.2539 63.9885 15.1782 64.5957 14.2633C65.203 13.3484 66.0661 12.6356 67.0758 12.2149C68.0854 11.7943 69.1963 11.6847 70.2678 11.9002C71.3393 12.1157 72.3233 12.6464 73.0952 13.4253C73.867 14.2042 74.3922 15.1962 74.604 16.2758C74.8159 17.3554 74.7051 18.4741 74.2855 19.4902C73.8659 20.5063 73.1565 21.3742 72.247 21.9841C71.3374 22.5939 70.2687 22.9184 69.1761 22.9163C68.4494 22.9234 67.7287 22.7843 67.0561 22.5071C66.3835 22.23 65.7726 21.8204 65.2592 21.3024C64.7459 20.7844 64.3404 20.1683 64.0665 19.4904C63.7926 18.8124 63.6559 18.0863 63.6643 17.3544ZM71.5743 17.3544C71.5619 16.8791 71.4105 16.4181 71.1391 16.0291C70.8676 15.6402 70.4883 15.3405 70.0485 15.1677C69.6087 14.9949 69.1281 14.9567 68.6668 15.0578C68.2056 15.1589 67.7842 15.3949 67.4556 15.7361C67.1269 16.0774 66.9055 16.5087 66.8191 16.9762C66.7328 17.4436 66.7853 17.9263 66.9702 18.3637C67.155 18.8012 67.4639 19.174 67.8582 19.4355C68.2524 19.6969 68.7146 19.8353 69.1866 19.8334C69.5077 19.8397 69.8266 19.7792 70.1235 19.6558C70.4203 19.5323 70.6887 19.3485 70.9118 19.1158C71.1349 18.8832 71.3079 18.6067 71.4201 18.3036C71.5323 18.0005 71.5812 17.6774 71.5638 17.3544H71.5743Z" fill="#1D2130"/>
<path d="M76.15 9.3029C76.15 8.92994 76.2598 8.56535 76.4655 8.25524C76.6713 7.94513 76.9637 7.70343 77.3058 7.56071C77.6479 7.41798 78.0244 7.38064 78.3876 7.4534C78.7508 7.52616 79.0844 7.70576 79.3462 7.96949C79.6081 8.23321 79.7864 8.56922 79.8586 8.93501C79.9309 9.30081 79.8938 9.67997 79.7521 10.0245C79.6104 10.3691 79.3704 10.6636 79.0625 10.8708C78.7546 11.078 78.3926 11.1886 78.0223 11.1886C77.5274 11.1831 77.0544 10.9827 76.7044 10.6302C76.3545 10.2778 76.1555 9.80132 76.15 9.3029ZM76.455 12.1103H79.6106V22.5984H76.455V12.1103Z" fill="#1D2130"/>
<path d="M93.1165 17.3544C93.1518 18.052 93.0499 18.7496 92.8165 19.4073C92.5831 20.065 92.2229 20.6697 91.7566 21.1866C91.2903 21.7035 90.727 22.1225 90.0993 22.4193C89.4716 22.7162 88.7918 22.8851 88.0991 22.9163C87.5112 22.9557 86.9221 22.8609 86.3757 22.6389C85.8293 22.4169 85.3397 22.0736 84.9435 21.6344V26.8149H81.7879V12.1104H84.9435V13.0956C85.3402 12.6578 85.8302 12.316 86.3767 12.0958C86.9231 11.8757 87.512 11.7829 88.0991 11.8244C88.7891 11.8557 89.4662 12.0235 90.0917 12.3184C90.7173 12.6132 91.279 13.0293 91.745 13.5428C92.2109 14.0563 92.5718 14.6572 92.8071 15.3112C93.0424 15.9652 93.1476 16.6595 93.1165 17.3544ZM89.9609 17.3544C89.9484 16.8624 89.7921 16.385 89.5114 15.9821C89.2308 15.5791 88.8382 15.2686 88.3831 15.0894C87.9279 14.9102 87.4304 14.8703 86.9528 14.9747C86.4752 15.0791 86.0389 15.3231 85.6984 15.6763C85.3579 16.0294 85.1285 16.4758 85.039 16.9597C84.9494 17.4435 85.0036 17.9433 85.1948 18.3962C85.386 18.8492 85.7057 19.2352 86.1138 19.506C86.5219 19.7767 87.0003 19.9201 87.489 19.9182C87.8237 19.9325 88.1577 19.8754 88.469 19.7506C88.7802 19.6258 89.0618 19.4361 89.2952 19.1941C89.5286 18.952 89.7086 18.6629 89.8233 18.3459C89.938 18.0289 89.9849 17.691 89.9609 17.3544Z" fill="#1D2130"/>
<path d="M102.72 19.452C102.72 21.8674 100.616 22.8951 98.3863 22.8951C97.4768 22.9775 96.5636 22.7833 95.7648 22.3376C94.966 21.8919 94.3183 21.2152 93.9053 20.3949L96.6192 18.8481C96.7267 19.2262 96.9598 19.5555 97.2795 19.7812C97.5993 20.0068 97.9863 20.115 98.3758 20.0876C99.1226 20.0876 99.5013 19.8546 99.5013 19.4308C99.5013 18.2761 94.3787 18.8905 94.3787 15.2568C94.3787 12.9685 96.2931 11.8243 98.4599 11.8243C99.2836 11.7872 100.102 11.9754 100.828 12.3689C101.554 12.7625 102.16 13.3468 102.583 14.0596L99.8694 15.5004C99.7495 15.2271 99.5536 14.9946 99.3054 14.8311C99.0571 14.6675 98.7671 14.5799 98.4704 14.5788C97.9235 14.5788 97.5974 14.7906 97.5974 15.1614C97.5974 16.3691 102.72 15.5746 102.72 19.452Z" fill="#1D2130"/>
<path d="M114.154 12.1104V22.5985H110.998V21.6132C110.64 22.0494 110.184 22.3945 109.669 22.6208C109.154 22.8472 108.593 22.9484 108.032 22.9163C105.928 22.9163 104.129 21.4014 104.129 18.5728V12.1104H107.285V18.096C107.26 18.3463 107.29 18.599 107.371 18.8366C107.453 19.0743 107.585 19.2913 107.758 19.4726C107.931 19.6539 108.141 19.7952 108.373 19.8868C108.606 19.9784 108.855 20.018 109.105 20.003C110.241 20.003 111.04 19.3249 111.04 17.8841V12.1104H114.154Z" fill="#1D2130"/>
<path d="M132.035 16.1573V22.5984H128.88V16.4327C128.88 15.3733 128.385 14.7165 127.386 14.7165C126.387 14.7165 125.756 15.4475 125.756 16.687V22.5984H122.6V16.4327C122.6 15.3733 122.106 14.7165 121.106 14.7165C120.107 14.7165 119.476 15.4475 119.476 16.687V22.5984H116.32V12.1103H119.476V13.0744C119.803 12.6485 120.23 12.3112 120.718 12.0929C121.206 11.8747 121.741 11.7824 122.274 11.8243C122.808 11.7963 123.339 11.9085 123.817 12.1499C124.295 12.3914 124.702 12.7538 124.998 13.2015C125.345 12.7337 125.804 12.3621 126.332 12.1212C126.859 11.8804 127.439 11.7782 128.017 11.8243C130.479 11.8243 132.035 13.5405 132.035 16.1573Z" fill="#1D2130"/>
<path d="M14.7002 4.53566V0.0332031H0.605225V30.9677H14.7002V26.4653C11.8128 26.4653 9.04373 25.3101 7.00206 23.2538C4.9604 21.1975 3.8134 18.4085 3.8134 15.5005C3.8134 12.5924 4.9604 9.80348 7.00206 7.74718C9.04373 5.69088 11.8128 4.53566 14.7002 4.53566Z" fill="#1D2130"/>
<path d="M14.7002 4.53566V26.4653C17.5875 26.4653 20.3565 25.3101 22.3982 23.2538C24.4399 21.1975 25.5869 18.4085 25.5869 15.5005C25.5869 12.5924 24.4399 9.80348 22.3982 7.74718C20.3565 5.69088 17.5875 4.53566 14.7002 4.53566Z" fill="#1D2130"/>
<path d="M134.686 12.0468C135.964 12.0468 137 11.0033 137 9.71611C137 8.42891 135.964 7.38542 134.686 7.38542C133.408 7.38542 132.372 8.42891 132.372 9.71611C132.372 11.0033 133.408 12.0468 134.686 12.0468Z" fill="#1D2130"/>
</g>
</svg>
