<svg width="124" height="25" viewBox="0 0 124 25" fill="none" xmlns="http://www.w3.org/2000/svg">
<g opacity="0.6">
<path d="M40.1973 20.1891C39.575 20.2226 38.9595 20.0469 38.4501 19.6902C38.2372 19.5334 38.0659 19.3275 37.9511 19.0903C37.8363 18.8531 37.7813 18.5916 37.7909 18.3286V8.69321C37.7858 8.65241 37.7902 8.611 37.8036 8.57213C37.8171 8.53326 37.8393 8.49794 37.8685 8.46888C37.8978 8.43981 37.9333 8.41776 37.9725 8.4044C38.0116 8.39104 38.0533 8.38672 38.0943 8.39178H39.852C40.0508 8.39178 40.145 8.49572 40.145 8.69321V17.5802C40.145 17.9752 40.3228 18.1727 40.689 18.1727C40.8442 18.179 40.9995 18.1615 41.1493 18.1207C41.3586 18.1207 41.4737 18.183 41.4841 18.3701L41.6411 19.6694C41.6486 19.7073 41.6479 19.7463 41.639 19.7839C41.63 19.8215 41.6131 19.8567 41.5893 19.8873C41.5655 19.9178 41.5354 19.9429 41.501 19.9609C41.4666 19.9789 41.4288 19.9894 41.39 19.9916C41.005 20.118 40.6027 20.1846 40.1973 20.1891Z" fill="#1D2130"/>
<path d="M50.0842 19.077C49.201 19.802 48.0912 20.1985 46.9455 20.1985C45.7998 20.1985 44.69 19.802 43.8068 19.077C43.0305 18.2985 42.595 17.2469 42.595 16.1511C42.595 15.0552 43.0305 14.0037 43.8068 13.2251C44.6917 12.5039 45.8009 12.1097 46.9455 12.1097C48.0901 12.1097 49.1993 12.5039 50.0842 13.2251C50.8426 14.0108 51.266 15.0573 51.266 16.1459C51.266 17.2344 50.8426 18.2809 50.0842 19.0666V19.077ZM45.4598 17.705C45.8697 18.0738 46.4029 18.2781 46.956 18.2781C47.509 18.2781 48.0422 18.0738 48.4521 17.705C48.823 17.2812 49.0273 16.7386 49.0273 16.177C49.0273 15.6155 48.823 15.0728 48.4521 14.6491C48.0422 14.2803 47.509 14.076 46.956 14.076C46.4029 14.076 45.8697 14.2803 45.4598 14.6491C45.0889 15.0728 44.8846 15.6155 44.8846 16.177C44.8846 16.7386 45.0889 17.2812 45.4598 17.705Z" fill="#1D2130"/>
<path d="M60.9441 12.3727C61.1429 12.3727 61.2371 12.4767 61.2371 12.6742V20.1268C61.2554 20.6298 61.1606 21.1305 60.9597 21.5926C60.7589 22.0546 60.4569 22.4664 60.0758 22.798C59.2298 23.5147 58.1419 23.8861 57.0312 23.8375C56.028 23.8725 55.0382 23.6003 54.1959 23.0579C53.8362 22.8232 53.5289 22.5176 53.2932 22.16C53.0574 21.8024 52.8981 21.4004 52.8253 20.9791C52.8253 20.7712 52.8253 20.6776 53.1078 20.6776H54.8655C54.9401 20.6802 55.0124 20.7041 55.0737 20.7465C55.1349 20.7889 55.1825 20.848 55.2108 20.9167C55.3247 21.2324 55.552 21.4952 55.849 21.6547C56.2108 21.8402 56.6136 21.9331 57.0207 21.9249C57.2664 21.9383 57.5123 21.9029 57.744 21.8208C57.9757 21.7387 58.1887 21.6116 58.3704 21.4468C58.5364 21.2744 58.6655 21.0705 58.7501 20.8472C58.8346 20.6239 58.8727 20.3859 58.8621 20.1475V19.4927C58.2328 19.9526 57.4669 20.1904 56.6859 20.1683C56.1394 20.1881 55.5945 20.0979 55.0839 19.9032C54.5733 19.7085 54.1075 19.4133 53.7146 19.0354C52.9603 18.2601 52.5387 17.224 52.5387 16.1458C52.5387 15.0676 52.9603 14.0315 53.7146 13.2562C54.1094 12.8816 54.5757 12.5893 55.086 12.3965C55.5963 12.2037 56.1403 12.1143 56.6859 12.1337C57.4895 12.1126 58.276 12.3657 58.9144 12.8509V12.6846C58.9096 12.6447 58.9138 12.6043 58.9267 12.5663C58.9396 12.5283 58.9608 12.4936 58.9888 12.4647C59.0169 12.4358 59.051 12.4135 59.0888 12.3994C59.1266 12.3853 59.1671 12.3798 59.2074 12.3831L60.9441 12.3727ZM56.8847 18.3182C57.1543 18.3265 57.4224 18.2758 57.67 18.1699C57.9177 18.0639 58.1389 17.9052 58.3181 17.7049C58.6659 17.2587 58.8547 16.7102 58.8547 16.1458C58.8547 15.5814 58.6659 15.033 58.3181 14.5867C58.1396 14.3891 57.9197 14.2328 57.6739 14.1286C57.4281 14.0245 57.1623 13.9751 56.8952 13.9838C56.6226 13.9753 56.3513 14.0257 56.1002 14.1316C55.8491 14.2375 55.6242 14.3963 55.4409 14.5971C55.0556 15.024 54.8529 15.5833 54.876 16.1562C54.8571 16.7235 55.0552 17.2769 55.4305 17.7049C55.6141 17.9051 55.8392 18.0636 56.0902 18.1694C56.3411 18.2753 56.6122 18.326 56.8847 18.3182Z" fill="#1D2130"/>
<path d="M70.2661 19.0769C69.3811 19.7982 68.2719 20.1923 67.1274 20.1923C65.9828 20.1923 64.8736 19.7982 63.9886 19.0769C63.2296 18.2895 62.8059 17.2413 62.8059 16.151C62.8059 15.0607 63.2296 14.0125 63.9886 13.225C64.8744 12.5057 65.9833 12.1127 67.1274 12.1127C68.2714 12.1127 69.3803 12.5057 70.2661 13.225C71.0244 14.0108 71.4478 15.0572 71.4478 16.1458C71.4478 17.2344 71.0244 18.2808 70.2661 19.0666V19.0769ZM65.6312 17.7049C65.8318 17.8945 66.0682 18.0426 66.3269 18.1408C66.5855 18.2389 66.8611 18.2851 67.1378 18.2766C67.4128 18.2837 67.6864 18.2368 67.9432 18.1387C68.1999 18.0406 68.4346 17.8932 68.6339 17.7049C68.9988 17.2784 69.1992 16.7368 69.1992 16.177C69.1992 15.6172 68.9988 15.0756 68.6339 14.649C68.4346 14.4607 68.1999 14.3133 67.9432 14.2152C67.6864 14.1171 67.4128 14.0703 67.1378 14.0774C66.8611 14.0689 66.5855 14.1151 66.3269 14.2132C66.0682 14.3113 65.8318 14.4595 65.6312 14.649C65.2663 15.0756 65.066 15.6172 65.066 16.177C65.066 16.7368 65.2663 17.2784 65.6312 17.7049Z" fill="#1D2130"/>
<path d="M75.2253 10.6058C74.9487 10.8463 74.5937 10.9788 74.2261 10.9788C73.8586 10.9788 73.5035 10.8463 73.227 10.6058C73.1016 10.4882 73.0017 10.3464 72.9334 10.1891C72.8651 10.0319 72.8299 9.86238 72.8299 9.69109C72.8299 9.5198 72.8651 9.35031 72.9334 9.19302C73.0017 9.03574 73.1016 8.89397 73.227 8.7764C73.5064 8.54192 73.8604 8.41329 74.2261 8.41329C74.5919 8.41329 74.9459 8.54192 75.2253 8.7764C75.3507 8.89397 75.4506 9.03574 75.5188 9.19302C75.5871 9.35031 75.6223 9.5198 75.6223 9.69109C75.6223 9.86238 75.5871 10.0319 75.5188 10.1891C75.4506 10.3464 75.3507 10.4882 75.2253 10.6058ZM75.445 20.1892C74.8231 20.2195 74.2086 20.044 73.6978 19.6902C73.4881 19.5312 73.3199 19.3246 73.207 19.0877C73.0942 18.8508 73.04 18.5905 73.0491 18.3286V12.6742C73.044 12.6334 73.0484 12.592 73.0618 12.5531C73.0753 12.5143 73.0975 12.4789 73.1267 12.4499C73.156 12.4208 73.1915 12.3988 73.2306 12.3854C73.2698 12.372 73.3115 12.3677 73.3525 12.3728H75.1102C75.309 12.3728 75.4031 12.4767 75.4031 12.6742V17.5802C75.4031 17.9752 75.581 18.1727 75.9367 18.1727C76.0954 18.1784 76.254 18.1609 76.4075 18.1207C76.6168 18.1207 76.7319 18.1831 76.7423 18.3702L76.8993 19.6695C76.9068 19.7073 76.9061 19.7464 76.8971 19.784C76.8882 19.8215 76.8713 19.8568 76.8475 19.8873C76.8237 19.9178 76.7936 19.943 76.7592 19.961C76.7248 19.979 76.687 19.9894 76.6482 19.9917C76.2598 20.1187 75.8539 20.1854 75.445 20.1892Z" fill="#1D2130"/>
<path d="M83.3651 12.1233C83.9141 12.1018 84.4619 12.19 84.9759 12.3829C85.4899 12.5757 85.9597 12.8692 86.3573 13.2459C87.0972 14.0347 87.5085 15.0729 87.5085 16.1511C87.5085 17.2293 87.0972 18.2674 86.3573 19.0562C85.9616 19.4363 85.4924 19.7326 84.9781 19.9274C84.4638 20.1221 83.915 20.2112 83.3651 20.1892C82.5816 20.2065 81.8139 19.9693 81.1785 19.5136V23.2658C81.1785 23.4633 81.0738 23.5569 80.8751 23.5569H79.1174C79.0773 23.5643 79.0359 23.5619 78.997 23.55C78.958 23.538 78.9225 23.5167 78.8937 23.4881C78.8649 23.4594 78.8435 23.4242 78.8314 23.3855C78.8193 23.3467 78.8169 23.3057 78.8244 23.2658V14.7427C78.8367 14.6593 78.8293 14.5742 78.8026 14.4942C78.7759 14.4142 78.7308 14.3416 78.6708 14.282C78.6109 14.2224 78.5377 14.1776 78.4572 14.1511C78.3767 14.1246 78.2911 14.1172 78.2071 14.1294H77.8619C77.6317 14.1294 77.5166 14.0462 77.5166 13.8799V12.6534C77.5112 12.5775 77.5321 12.5021 77.5759 12.4397C77.6197 12.3773 77.6837 12.3316 77.7573 12.3104C78.1192 12.1797 78.5022 12.1163 78.8872 12.1233C79.2711 12.0896 79.6565 12.1705 79.9939 12.3556C80.3312 12.5408 80.6053 12.8219 80.7809 13.1627C81.1179 12.8241 81.5209 12.5572 81.9652 12.3785C82.4095 12.1998 82.8858 12.113 83.3651 12.1233ZM81.733 17.705C81.9195 17.8987 82.1436 18.0528 82.3918 18.1581C82.6399 18.2634 82.9069 18.3177 83.1768 18.3177C83.4466 18.3177 83.7136 18.2634 83.9618 18.1581C84.2099 18.0528 84.434 17.8987 84.6206 17.705C85.0135 17.2696 85.22 16.699 85.196 16.1147C85.2234 15.5298 85.0165 14.958 84.6206 14.5244C84.434 14.3307 84.2099 14.1765 83.9618 14.0712C83.7136 13.9659 83.4466 13.9116 83.1768 13.9116C82.9069 13.9116 82.6399 13.9659 82.3918 14.0712C82.1436 14.1765 81.9195 14.3307 81.733 14.5244C81.3523 14.9657 81.1541 15.534 81.1785 16.1147C81.1572 16.6949 81.355 17.2621 81.733 17.705Z" fill="#1D2130"/>
<path d="M92.4463 20.1891C91.5071 20.2275 90.5758 20.0043 89.7575 19.5447C89.4292 19.3482 89.1496 19.0808 88.9395 18.7623C88.7294 18.4438 88.5941 18.0824 88.5439 17.7049C88.5439 17.497 88.6171 17.3931 88.8473 17.3931H90.3852C90.4584 17.3959 90.5294 17.4188 90.5903 17.4591C90.6512 17.4995 90.6997 17.5557 90.7305 17.6218C90.9502 18.183 91.5256 18.4637 92.4463 18.4637C92.7675 18.4783 93.0873 18.414 93.3775 18.2766C93.4776 18.2316 93.5636 18.1605 93.6263 18.0708C93.6889 17.9811 93.7259 17.8762 93.7332 17.7673C93.7332 17.497 93.5658 17.3099 93.231 17.1852C92.8339 17.0539 92.4234 16.9667 92.0069 16.9254C91.5136 16.8699 91.0243 16.7831 90.5422 16.6655C90.0733 16.5601 89.6469 16.3175 89.3181 15.9691C89.1244 15.7323 88.9819 15.4584 88.8993 15.1646C88.8167 14.8707 88.7959 14.5631 88.8381 14.2609C88.8803 13.9586 88.9846 13.6683 89.1446 13.4078C89.3045 13.1474 89.5167 12.9224 89.768 12.7469C90.5221 12.2697 91.4069 12.0372 92.2999 12.0817C93.1644 12.0526 94.0199 12.2651 94.769 12.6949C95.0709 12.8648 95.3308 13.0994 95.5299 13.3817C95.729 13.664 95.8622 13.9869 95.9198 14.3268C95.9198 14.5347 95.8257 14.6386 95.6374 14.6386H94.0889C94.0237 14.6425 93.9589 14.6267 93.9029 14.5933C93.8469 14.5599 93.8023 14.5105 93.775 14.4515C93.6716 14.2054 93.4768 14.0081 93.231 13.9007C92.9537 13.7565 92.6441 13.685 92.3312 13.6928C92.0245 13.6762 91.7186 13.737 91.4419 13.8695C91.3445 13.9068 91.2605 13.9724 91.2008 14.0576C91.1411 14.1428 91.1085 14.2438 91.1071 14.3476C91.1138 14.4897 91.1662 14.626 91.2566 14.7364C91.347 14.8468 91.4706 14.9254 91.6093 14.9609C92.0111 15.1113 92.4288 15.2159 92.8544 15.2727C93.3437 15.3366 93.8291 15.4269 94.3086 15.5429C94.7775 15.6484 95.2039 15.8909 95.5327 16.2393C95.7086 16.4313 95.8445 16.6559 95.9325 16.9004C96.0205 17.1448 96.0589 17.4041 96.0454 17.6633C96.0544 18.0226 95.9695 18.3781 95.799 18.6951C95.6284 19.0121 95.3781 19.2797 95.0724 19.4719C94.2907 19.9705 93.3747 20.2206 92.4463 20.1891Z" fill="#1D2130"/>
<path d="M107.104 19.6694C107.11 19.7063 107.109 19.744 107.1 19.7803C107.091 19.8166 107.074 19.8508 107.052 19.8808C107.03 19.9108 107.001 19.9361 106.969 19.9551C106.937 19.9741 106.901 19.9866 106.864 19.9916C106.482 20.1155 106.083 20.1821 105.681 20.1891C105.284 20.23 104.882 20.1683 104.516 20.0099C104.149 19.8514 103.83 19.6017 103.589 19.2848C102.85 19.9161 101.894 20.24 100.921 20.1891C100.469 20.2098 100.018 20.1363 99.5961 19.9734C99.1745 19.8105 98.7918 19.5618 98.4727 19.2433C98.1558 18.9095 97.91 18.5155 97.75 18.0851C97.59 17.6547 97.5191 17.1966 97.5416 16.7383V12.6742C97.5416 12.4767 97.6357 12.3727 97.8345 12.3727H99.5922C99.791 12.3727 99.8851 12.4767 99.8851 12.6742V16.4264C99.866 16.8939 100.027 17.3511 100.335 17.7049C100.489 17.867 100.676 17.9945 100.883 18.0788C101.091 18.163 101.314 18.2021 101.538 18.1934C101.768 18.2034 101.997 18.1681 102.212 18.0896C102.428 18.0111 102.625 17.891 102.794 17.7361C102.953 17.5729 103.077 17.3789 103.158 17.1661C103.239 16.9534 103.275 16.7264 103.264 16.4992V12.6742C103.264 12.4767 103.359 12.3727 103.557 12.3727H105.336C105.535 12.3727 105.629 12.4767 105.629 12.6742V17.5698C105.629 17.9752 105.807 18.1727 106.152 18.1727C106.314 18.1789 106.476 18.1614 106.633 18.1207C106.673 18.1097 106.714 18.1077 106.755 18.1149C106.795 18.1221 106.834 18.1383 106.867 18.1623C106.9 18.1863 106.927 18.2175 106.947 18.2535C106.966 18.2895 106.977 18.3294 106.979 18.3701L107.104 19.6694Z" fill="#1D2130"/>
<path d="M123.729 19.6695C123.738 19.7067 123.739 19.7455 123.731 19.7831C123.724 19.8207 123.708 19.8562 123.685 19.887C123.662 19.9178 123.632 19.9431 123.598 19.9612C123.564 19.9793 123.527 19.9897 123.488 19.9917C123.099 20.1173 122.694 20.1839 122.285 20.1892C121.663 20.2211 121.048 20.0454 120.538 19.6902C120.317 19.5381 120.138 19.3342 120.016 19.0967C119.893 18.8592 119.832 18.5953 119.837 18.3286V15.886C119.859 15.4199 119.702 14.9629 119.397 14.6075C119.251 14.4451 119.069 14.317 118.867 14.2325C118.664 14.148 118.445 14.1093 118.226 14.119C118.028 14.1116 117.831 14.1489 117.65 14.2281C117.468 14.3073 117.308 14.4264 117.179 14.5763C116.903 14.9246 116.762 15.3599 116.782 15.8028V19.6383C116.782 19.8358 116.688 19.9397 116.489 19.9397H114.721C114.68 19.9448 114.638 19.9404 114.599 19.9271C114.56 19.9137 114.524 19.8917 114.495 19.8626C114.466 19.8335 114.443 19.7982 114.43 19.7593C114.417 19.7205 114.412 19.6791 114.417 19.6383V15.886C114.44 15.425 114.295 14.9712 114.009 14.6075C113.882 14.4547 113.722 14.3318 113.541 14.2473C113.36 14.1629 113.163 14.1191 112.963 14.119C112.75 14.1104 112.537 14.1467 112.338 14.2256C112.14 14.3044 111.961 14.4239 111.812 14.5763C111.513 14.9135 111.359 15.3539 111.383 15.8028V19.6383C111.388 19.6791 111.384 19.7205 111.371 19.7593C111.357 19.7982 111.335 19.8335 111.306 19.8626C111.276 19.8917 111.241 19.9137 111.202 19.9271C111.163 19.9404 111.121 19.9448 111.08 19.9397H109.374C109.176 19.9397 109.081 19.8358 109.081 19.6383V14.7426C109.094 14.6593 109.086 14.5742 109.06 14.4942C109.033 14.4142 108.988 14.3415 108.928 14.282C108.868 14.2224 108.795 14.1776 108.714 14.1511C108.634 14.1246 108.548 14.1171 108.464 14.1294H108.119C107.889 14.1294 107.774 14.0462 107.774 13.8799V12.6534C107.768 12.5775 107.789 12.5021 107.833 12.4397C107.877 12.3772 107.941 12.3316 108.014 12.3104C108.376 12.1797 108.759 12.1163 109.144 12.1233C109.514 12.092 109.885 12.1652 110.214 12.3344C110.544 12.5036 110.818 12.7619 111.007 13.0796C111.36 12.7472 111.778 12.4908 112.235 12.3262C112.692 12.1617 113.179 12.0926 113.664 12.1233C114.135 12.1005 114.606 12.1883 115.036 12.3797C115.467 12.5712 115.847 12.8608 116.144 13.2251C116.49 12.8512 116.915 12.5584 117.389 12.3679C117.863 12.1774 118.374 12.0938 118.885 12.1233C119.341 12.1021 119.798 12.1752 120.224 12.338C120.651 12.5008 121.039 12.7498 121.364 13.0692C121.682 13.4023 121.929 13.7961 122.089 14.2267C122.249 14.6573 122.319 15.1157 122.295 15.5742V17.5802C122.295 17.9752 122.473 18.1727 122.808 18.1727C122.97 18.1802 123.133 18.1627 123.289 18.1207C123.506 18.1207 123.621 18.2039 123.635 18.3702L123.729 19.6695Z" fill="#1D2130"/>
<path d="M1.04712 11.0216C1.819 7.93935 3.60666 5.20231 6.12545 3.24624C8.64425 1.29017 11.7494 0.227539 14.9464 0.227539C18.1434 0.227539 21.2485 1.29017 23.7673 3.24624C26.2861 5.20231 28.0738 7.93935 28.8456 11.0216H27.5902C25.4722 10.9906 23.3977 11.6194 21.658 12.8197C21.5576 12.892 21.4528 12.9579 21.3441 13.0172H21.1976C21.089 12.9579 20.9842 12.892 20.8838 12.8197C19.1286 11.6472 17.0615 11.0209 14.9464 11.0209C12.8313 11.0209 10.7642 11.6472 9.00898 12.8197C8.90858 12.892 8.80375 12.9579 8.69511 13.0172H8.54864C8.44 12.9579 8.33518 12.892 8.23477 12.8197C6.49502 11.6194 4.42052 10.9906 2.30261 11.0216H1.04712ZM25.3303 17.5387C25.9748 17.04 26.7736 16.7792 27.5902 16.8007H29.2746V13.4642H27.5902C26.1518 13.4469 24.7463 13.8917 23.5831 14.7323C22.9284 15.2117 22.1365 15.4704 21.3232 15.4704C20.5099 15.4704 19.7179 15.2117 19.0633 14.7323C17.8705 13.9073 16.452 13.4651 14.9987 13.4651C13.5453 13.4651 12.1269 13.9073 10.9341 14.7323C10.2794 15.2117 9.48749 15.4704 8.67419 15.4704C7.86089 15.4704 7.06895 15.2117 6.41432 14.7323C5.23667 13.8809 3.81106 13.4356 2.35492 13.4642H0.618164V16.8007H2.30261C3.1192 16.7792 3.91798 17.04 4.56248 17.5387C5.7531 18.3641 7.17001 18.8067 8.62188 18.8067C10.0737 18.8067 11.4907 18.3641 12.6813 17.5387C13.3266 17.0416 14.1248 16.7809 14.9411 16.8007C15.758 16.7774 16.5574 17.0385 17.201 17.5387C18.3938 18.3636 19.8123 18.8058 21.2656 18.8058C22.719 18.8058 24.1375 18.3636 25.3303 17.5387ZM25.3303 23.5049C25.9748 23.0063 26.7736 22.7454 27.5902 22.7669H29.2746V19.4304H27.5902C26.1518 19.4131 24.7463 19.8579 23.5831 20.6985C22.9284 21.178 22.1365 21.4366 21.3232 21.4366C20.5099 21.4366 19.7179 21.178 19.0633 20.6985C17.8705 19.8736 16.452 19.4314 14.9987 19.4314C13.5453 19.4314 12.1269 19.8736 10.9341 20.6985C10.2794 21.178 9.48749 21.4366 8.67419 21.4366C7.86089 21.4366 7.06895 21.178 6.41432 20.6985C5.23667 19.8471 3.81106 19.4018 2.35492 19.4304H0.618164V22.7669H2.30261C3.1192 22.7454 3.91798 23.0063 4.56248 23.5049C5.7531 24.3304 7.17001 24.773 8.62188 24.773C10.0737 24.773 11.4907 24.3304 12.6813 23.5049C13.3266 23.0078 14.1248 22.7471 14.9411 22.7669C15.758 22.7437 16.5574 23.0047 17.201 23.5049C18.3938 24.3298 19.8123 24.772 21.2656 24.772C22.719 24.772 24.1375 24.3298 25.3303 23.5049Z" fill="#1D2130"/>
</g>
</svg>
