<svg width="138" height="31" viewBox="0 0 138 31" fill="none" xmlns="http://www.w3.org/2000/svg">
<g opacity="0.6">
<path d="M33.6002 7.2901H36.7557V22.5985H33.6002V7.2901Z" fill="#1D2130"/>
<path d="M38.5229 17.3544C38.5229 16.253 38.8476 15.1764 39.4558 14.2611C40.064 13.3458 40.9283 12.6329 41.9392 12.2129C42.9501 11.7929 44.0621 11.6846 45.1341 11.9018C46.2062 12.119 47.1901 12.6519 47.9611 13.4329C48.7322 14.214 49.2556 15.208 49.4651 16.2889C49.6746 17.3699 49.5608 18.4892 49.1379 19.5049C48.7151 20.5207 48.0024 21.3871 47.0901 21.9944C46.1779 22.6017 45.1071 22.9226 44.0136 22.9163C43.2883 22.922 42.5692 22.7818 41.8984 22.5039C41.2276 22.226 40.6186 21.816 40.1072 21.298C39.5958 20.7799 39.1922 20.1643 38.9202 19.4871C38.6481 18.8099 38.513 18.0848 38.5229 17.3544ZM46.4329 17.3544C46.4205 16.8796 46.2693 16.419 45.9984 16.0302C45.7274 15.6414 45.3487 15.3418 44.9095 15.1687C44.4703 14.9955 43.9902 14.9567 43.5293 15.0569C43.0683 15.1572 42.6469 15.3921 42.3178 15.7323C41.9886 16.0725 41.7664 16.5029 41.6789 16.9696C41.5913 17.4364 41.6424 17.9187 41.8256 18.3564C42.0088 18.7941 42.3161 19.1676 42.709 19.4303C43.1019 19.693 43.563 19.8332 44.0346 19.8334C44.3557 19.8397 44.6746 19.7792 44.9715 19.6558C45.2683 19.5323 45.5367 19.3485 45.7598 19.1158C45.9829 18.8832 46.1559 18.6067 46.2681 18.3036C46.3803 18.0005 46.4292 17.6774 46.4118 17.3544H46.4329Z" fill="#1D2130"/>
<path d="M61.9899 12.1104V22.0793C61.9899 25.5965 59.2551 27.0903 56.4887 27.0903C55.5129 27.171 54.5342 26.9757 53.6626 26.5265C52.7911 26.0773 52.0613 25.392 51.5555 24.5477L54.2167 23.001C54.4323 23.4389 54.7754 23.8002 55.2001 24.0368C55.6248 24.2734 56.111 24.374 56.5939 24.3253C56.9015 24.3634 57.2137 24.3327 57.5082 24.2352C57.8026 24.1377 58.0721 23.9758 58.2972 23.7612C58.5223 23.5466 58.6976 23.2846 58.8104 22.9938C58.9233 22.7031 58.971 22.3908 58.9501 22.0793V21.1153C58.5828 21.5637 58.1169 21.9197 57.5892 22.1551C57.0615 22.3905 56.4866 22.4988 55.9102 22.4713C54.5153 22.4713 53.1776 21.9132 52.1913 20.9199C51.205 19.9265 50.6509 18.5792 50.6509 17.1743C50.6509 15.7695 51.205 14.4221 52.1913 13.4288C53.1776 12.4354 54.5153 11.8773 55.9102 11.8773C56.4866 11.8498 57.0615 11.9581 57.5892 12.1935C58.1169 12.4289 58.5828 12.7849 58.9501 13.2333V12.1739L61.9899 12.1104ZM58.9501 17.1425C58.971 16.6357 58.841 16.1341 58.5767 15.7023C58.3123 15.2704 57.9258 14.9281 57.4668 14.7193C57.0077 14.5106 56.4972 14.4448 56.0007 14.5307C55.5043 14.6165 55.0447 14.8499 54.6811 15.2009C54.3174 15.5519 54.0663 16.0044 53.9601 16.5003C53.8539 16.9962 53.8973 17.5127 54.0849 17.9835C54.2725 18.4543 54.5956 18.8578 55.0127 19.1422C55.4299 19.4265 55.9219 19.5787 56.4256 19.5791C56.7542 19.603 57.0842 19.5571 57.3942 19.4446C57.7042 19.332 57.9872 19.1552 58.2251 18.9255C58.463 18.6959 58.6505 18.4186 58.7754 18.1115C58.9002 17.8043 58.9597 17.4743 58.9501 17.1425Z" fill="#1D2130"/>
<path d="M63.7675 17.3544C63.7675 16.2539 64.0917 15.1782 64.6989 14.2633C65.3062 13.3484 66.1693 12.6356 67.179 12.2149C68.1886 11.7943 69.2995 11.6847 70.371 11.9002C71.4425 12.1157 72.4265 12.6464 73.1984 13.4253C73.9703 14.2042 74.4954 15.1962 74.7073 16.2758C74.9191 17.3554 74.8083 18.4741 74.3887 19.4902C73.9691 20.5063 73.2597 21.3742 72.3502 21.9841C71.4407 22.5939 70.3719 22.9184 69.2793 22.9163C68.5526 22.9234 67.8319 22.7843 67.1593 22.5071C66.4867 22.23 65.8758 21.8204 65.3624 21.3024C64.8491 20.7844 64.4436 20.1683 64.1697 19.4904C63.8958 18.8124 63.7591 18.0863 63.7675 17.3544ZM71.6775 17.3544C71.6651 16.8791 71.5137 16.4181 71.2423 16.0291C70.9709 15.6402 70.5915 15.3405 70.1517 15.1677C69.7119 14.9949 69.2313 14.9567 68.7701 15.0578C68.3088 15.1589 67.8874 15.3949 67.5588 15.7361C67.2301 16.0774 67.0087 16.5087 66.9223 16.9762C66.836 17.4436 66.8885 17.9263 67.0734 18.3637C67.2582 18.8012 67.5671 19.174 67.9614 19.4355C68.3557 19.6969 68.8178 19.8353 69.2898 19.8334C69.6109 19.8397 69.9298 19.7792 70.2267 19.6558C70.5235 19.5323 70.7919 19.3485 71.015 19.1158C71.2381 18.8832 71.4111 18.6067 71.5233 18.3036C71.6355 18.0005 71.6844 17.6774 71.667 17.3544H71.6775Z" fill="#1D2130"/>
<path d="M76.2532 9.3029C76.2532 8.92994 76.363 8.56535 76.5687 8.25524C76.7745 7.94513 77.0669 7.70343 77.409 7.56071C77.7511 7.41798 78.1276 7.38064 78.4908 7.4534C78.854 7.52616 79.1876 7.70576 79.4494 7.96949C79.7113 8.23321 79.8896 8.56922 79.9618 8.93501C80.0341 9.30081 79.997 9.67997 79.8553 10.0245C79.7136 10.3691 79.4736 10.6636 79.1657 10.8708C78.8578 11.078 78.4958 11.1886 78.1255 11.1886C77.6306 11.1831 77.1576 10.9827 76.8076 10.6302C76.4577 10.2778 76.2587 9.80132 76.2532 9.3029ZM76.5582 12.1103H79.7138V22.5984H76.5582V12.1103Z" fill="#1D2130"/>
<path d="M93.2197 17.3544C93.2551 18.052 93.1531 18.7496 92.9197 19.4073C92.6863 20.065 92.3261 20.6697 91.8598 21.1866C91.3935 21.7035 90.8302 22.1225 90.2025 22.4193C89.5748 22.7162 88.8951 22.8851 88.2023 22.9163C87.6144 22.9557 87.0253 22.8609 86.4789 22.6389C85.9325 22.4169 85.4429 22.0736 85.0467 21.6344V26.8149H81.8911V12.1104H85.0467V13.0956C85.4435 12.6578 85.9334 12.316 86.4799 12.0958C87.0263 11.8757 87.6152 11.7829 88.2023 11.8244C88.8923 11.8557 89.5694 12.0235 90.1949 12.3184C90.8205 12.6132 91.3823 13.0293 91.8482 13.5428C92.3141 14.0563 92.675 14.6572 92.9103 15.3112C93.1456 15.9652 93.2508 16.6595 93.2197 17.3544ZM90.0641 17.3544C90.0517 16.8624 89.8953 16.385 89.6146 15.9821C89.334 15.5791 88.9414 15.2686 88.4863 15.0894C88.0311 14.9102 87.5336 14.8703 87.056 14.9747C86.5784 15.0791 86.1421 15.3231 85.8016 15.6763C85.4612 16.0294 85.2318 16.4758 85.1422 16.9597C85.0526 17.4435 85.1068 17.9433 85.298 18.3962C85.4892 18.8492 85.8089 19.2352 86.217 19.506C86.6251 19.7767 87.1035 19.9201 87.5922 19.9182C87.9269 19.9325 88.2609 19.8754 88.5722 19.7506C88.8835 19.6258 89.165 19.4361 89.3984 19.1941C89.6318 18.952 89.8118 18.6629 89.9265 18.3459C90.0412 18.0289 90.0881 17.691 90.0641 17.3544Z" fill="#1D2130"/>
<path d="M102.823 19.452C102.823 21.8674 100.719 22.8951 98.4895 22.8951C97.58 22.9775 96.6668 22.7833 95.868 22.3376C95.0692 21.8919 94.4215 21.2152 94.0086 20.3949L96.7224 18.8481C96.8299 19.2262 97.063 19.5555 97.3828 19.7812C97.7025 20.0068 98.0895 20.115 98.479 20.0876C99.2258 20.0876 99.6045 19.8546 99.6045 19.4308C99.6045 18.2761 94.4819 18.8905 94.4819 15.2568C94.4819 12.9685 96.3963 11.8243 98.5631 11.8243C99.3868 11.7872 100.205 11.9754 100.931 12.3689C101.657 12.7625 102.264 13.3468 102.686 14.0596L99.9726 15.5004C99.8527 15.2271 99.6568 14.9946 99.4086 14.8311C99.1603 14.6675 98.8703 14.5799 98.5736 14.5788C98.0267 14.5788 97.7006 14.7906 97.7006 15.1614C97.7006 16.3691 102.823 15.5746 102.823 19.452Z" fill="#1D2130"/>
<path d="M114.257 12.1104V22.5985H111.101V21.6132C110.743 22.0494 110.288 22.3945 109.772 22.6208C109.257 22.8472 108.696 22.9484 108.135 22.9163C106.031 22.9163 104.233 21.4014 104.233 18.5728V12.1104H107.388V18.096C107.363 18.3463 107.393 18.599 107.474 18.8366C107.556 19.0743 107.688 19.2913 107.861 19.4726C108.034 19.6539 108.244 19.7952 108.477 19.8868C108.709 19.9784 108.959 20.018 109.208 20.003C110.344 20.003 111.143 19.3249 111.143 17.8841V12.1104H114.257Z" fill="#1D2130"/>
<path d="M132.138 16.1573V22.5984H128.983V16.4327C128.983 15.3733 128.489 14.7165 127.489 14.7165C126.49 14.7165 125.859 15.4475 125.859 16.687V22.5984H122.703V16.4327C122.703 15.3733 122.209 14.7165 121.21 14.7165C120.21 14.7165 119.579 15.4475 119.579 16.687V22.5984H116.424V12.1103H119.579V13.0744C119.906 12.6485 120.333 12.3112 120.821 12.0929C121.31 11.8747 121.844 11.7824 122.377 11.8243C122.911 11.7963 123.443 11.9085 123.92 12.1499C124.398 12.3914 124.805 12.7538 125.102 13.2015C125.448 12.7337 125.907 12.3621 126.435 12.1212C126.963 11.8804 127.543 11.7782 128.12 11.8243C130.582 11.8243 132.138 13.5405 132.138 16.1573Z" fill="#1D2130"/>
<path d="M14.8034 4.53566V0.0332031H0.708435V30.9677H14.8034V26.4653C11.916 26.4653 9.14694 25.3101 7.10528 23.2538C5.06361 21.1975 3.91661 18.4085 3.91661 15.5005C3.91661 12.5924 5.06361 9.80348 7.10528 7.74718C9.14694 5.69088 11.916 4.53566 14.8034 4.53566Z" fill="#1D2130"/>
<path d="M14.8034 4.53566V26.4653C17.6907 26.4653 20.4598 25.3101 22.5014 23.2538C24.5431 21.1975 25.6901 18.4085 25.6901 15.5005C25.6901 12.5924 24.5431 9.80348 22.5014 7.74718C20.4598 5.69088 17.6907 4.53566 14.8034 4.53566Z" fill="#1D2130"/>
<path d="M134.789 12.0468C136.067 12.0468 137.103 11.0033 137.103 9.71611C137.103 8.42891 136.067 7.38542 134.789 7.38542C133.511 7.38542 132.475 8.42891 132.475 9.71611C132.475 11.0033 133.511 12.0468 134.789 12.0468Z" fill="#1D2130"/>
</g>
</svg>
