<svg width="126" height="29" viewBox="0 0 126 29" fill="none" xmlns="http://www.w3.org/2000/svg">
<g opacity="0.6">
<path d="M37.0753 8.28916H40.2309V21.0185H37.0753V8.28916ZM41.4826 16.2122C41.4826 13.064 43.418 11.1855 46.4053 11.1855C49.3926 11.1855 51.328 13.064 51.328 16.2122C51.328 19.3604 49.4347 21.2493 46.4053 21.2493C43.3759 21.2493 41.4826 19.4129 41.4826 16.2122ZM48.1619 16.2122C48.1619 14.4807 47.4782 13.4627 46.4053 13.4627C45.3324 13.4627 44.6592 14.5121 44.6592 16.2122C44.6592 17.9122 45.3219 18.9406 46.4053 18.9406C47.4887 18.9406 48.1619 17.9752 48.1619 16.2227V16.2122ZM52.5166 21.6376H55.546C55.6901 21.9572 55.9339 22.2217 56.2409 22.3919C56.548 22.5621 56.9019 22.6288 57.25 22.5821C58.4491 22.5821 59.0802 21.9315 59.0802 20.987V19.224H59.0171C58.7657 19.7643 58.3577 20.2171 57.8459 20.5239C57.334 20.8306 56.7418 20.9773 56.1455 20.945C53.842 20.945 52.3168 19.1925 52.3168 16.1807C52.3168 13.1689 53.7683 11.2695 56.1876 11.2695C56.8025 11.2454 57.4101 11.4094 57.929 11.7395C58.4478 12.0696 58.8532 12.5501 59.0907 13.1164V11.3639H62.2463V20.9135C62.2463 23.2117 60.2162 24.6389 57.2184 24.6389C54.431 24.6389 52.6954 23.3901 52.5166 21.6481V21.6376ZM59.0907 16.2017C59.0907 14.6696 58.386 13.7041 57.271 13.7041C56.156 13.7041 55.4723 14.6591 55.4723 16.2017C55.4723 17.7443 56.1455 18.6153 57.271 18.6153C58.3965 18.6153 59.0907 17.7653 59.0907 16.2122V16.2017ZM63.4349 16.2017C63.4349 13.0535 65.3704 11.175 68.3577 11.175C71.3449 11.175 73.2909 13.0535 73.2909 16.2017C73.2909 19.3499 71.3975 21.2388 68.3577 21.2388C65.3178 21.2388 63.4349 19.4129 63.4349 16.2122V16.2017ZM70.1143 16.2017C70.1143 14.4702 69.4305 13.4522 68.3577 13.4522C67.2848 13.4522 66.6641 14.5121 66.6641 16.2227C66.6641 17.9332 67.3268 18.9511 68.3997 18.9511C69.4726 18.9511 70.1143 17.9752 70.1143 16.2227V16.2017ZM74.49 9.07622C74.4817 8.75836 74.5682 8.44521 74.7386 8.17646C74.9089 7.90772 75.1554 7.69548 75.4468 7.56665C75.7382 7.43783 76.0613 7.39822 76.3753 7.45284C76.6893 7.50747 76.9799 7.65387 77.2104 7.87349C77.4409 8.0931 77.6008 8.37605 77.6699 8.68645C77.739 8.99686 77.7141 9.32074 77.5985 9.61704C77.4829 9.91335 77.2817 10.1687 77.0204 10.3508C76.7591 10.5329 76.4496 10.6335 76.1309 10.6398C75.9197 10.6543 75.7077 10.6251 75.5084 10.5539C75.309 10.4828 75.1266 10.3712 74.9725 10.2264C74.8184 10.0815 74.696 9.90642 74.6129 9.7121C74.5299 9.51778 74.4881 9.30843 74.49 9.09721V9.07622ZM74.49 11.3849H77.6456V21.0185H74.49V11.3849ZM89.1004 16.2017C89.1004 19.3499 87.7014 21.1444 85.3031 21.1444C84.6882 21.1838 84.0759 21.0338 83.5492 20.7147C83.0224 20.3957 82.6066 19.9229 82.3579 19.3604H82.2948V24.1037H79.1392V11.3639H82.2948V13.085H82.3579C82.595 12.5131 83.0029 12.0281 83.5261 11.6957C84.0493 11.3634 84.6625 11.1999 85.2821 11.2275C87.7014 11.2695 89.1424 13.0745 89.1424 16.2227L89.1004 16.2017ZM85.9448 16.2017C85.9448 14.6696 85.24 13.6936 84.1356 13.6936C83.0311 13.6936 82.3264 14.6801 82.3158 16.2017C82.3053 17.7233 83.0311 18.6993 84.1356 18.6993C85.24 18.6993 85.9448 17.7443 85.9448 16.2227V16.2017ZM94.5175 11.1645C97.1366 11.1645 98.7249 12.4028 98.7985 14.3862H95.9269C95.9269 13.7041 95.3589 13.2738 94.4859 13.2738C93.6128 13.2738 93.2237 13.6097 93.2237 14.1029C93.2237 14.5961 93.5708 14.7535 94.2755 14.9004L96.2951 15.3097C98.22 15.719 99.0405 16.4955 99.0405 17.9542C99.0405 19.9481 97.2207 21.2284 94.5385 21.2284C91.8562 21.2284 90.0996 19.9481 89.9629 17.9857H93.0028C93.0974 18.6993 93.6654 19.119 94.5911 19.119C95.5167 19.119 95.9375 18.8147 95.9375 18.311C95.9375 17.8073 95.6429 17.7023 94.8856 17.5449L93.0659 17.1567C91.183 16.7684 90.1943 15.7714 90.1943 14.3023C90.2153 12.4133 91.9088 11.1855 94.5175 11.1855V11.1645ZM109.57 20.9975H106.53V19.203H106.467C106.3 19.8055 105.931 20.3328 105.422 20.6974C104.913 21.062 104.294 21.242 103.669 21.2074C103.189 21.2346 102.71 21.1588 102.262 20.9851C101.814 20.8115 101.409 20.544 101.074 20.2008C100.739 19.8576 100.482 19.4466 100.32 18.9957C100.158 18.5447 100.094 18.0643 100.134 17.5869V11.3639H103.29V16.8628C103.29 18.0067 103.879 18.6153 104.857 18.6153C105.087 18.6158 105.313 18.5673 105.523 18.4732C105.732 18.3791 105.918 18.2414 106.07 18.0695C106.221 17.8976 106.334 17.6954 106.4 17.4764C106.467 17.2574 106.486 17.0267 106.456 16.7999V11.3639H109.612L109.57 20.9975ZM111.095 11.3639H114.145V13.2214H114.208C114.376 12.6269 114.736 12.1045 115.233 11.7361C115.73 11.3678 116.335 11.1741 116.954 11.1855C117.583 11.1352 118.209 11.3232 118.706 11.7121C119.203 12.101 119.535 12.6623 119.636 13.2843H119.699C119.89 12.6557 120.285 12.1082 120.822 11.7283C121.359 11.3483 122.007 11.1573 122.665 11.1855C123.094 11.1711 123.522 11.247 123.92 11.4082C124.317 11.5693 124.677 11.8122 124.974 12.121C125.272 12.4298 125.501 12.7976 125.647 13.2005C125.793 13.6034 125.852 14.0324 125.821 14.4597V21.0185H122.665V15.2992C122.665 14.2498 122.192 13.7671 121.308 13.7671C121.111 13.7654 120.916 13.8059 120.736 13.8859C120.556 13.9658 120.396 14.0834 120.265 14.2306C120.134 14.3778 120.037 14.5512 119.979 14.7392C119.921 14.9271 119.905 15.1253 119.93 15.3202V21.0185H116.933V15.2572C116.933 14.2918 116.459 13.7671 115.597 13.7671C115.398 13.7671 115.201 13.8093 115.019 13.8909C114.837 13.9725 114.675 14.0916 114.543 14.2403C114.41 14.3891 114.311 14.5641 114.252 14.7539C114.192 14.9436 114.174 15.1438 114.198 15.3412V21.0185H111.042L111.095 11.3639Z" fill="#1D2130"/>
<path d="M28.2502 8.86639C27.7149 7.64526 27.0064 6.50726 26.1465 5.4873C24.8752 3.93453 23.2888 2.66796 21.4916 1.77094C19.6944 0.873916 17.7272 0.36679 15.7193 0.282934C13.7115 0.199078 11.7087 0.540391 9.84262 1.28442C7.97655 2.02844 6.28958 3.1583 4.89273 4.59964C3.49588 6.04097 2.42082 7.76111 1.73832 9.64682C1.05582 11.5325 0.781343 13.5411 0.93296 15.5402C1.08458 17.5394 1.65885 19.4839 2.61798 21.2457C3.57711 23.0074 4.89934 24.5466 6.49767 25.7619C7.52324 26.5572 8.65646 27.2037 9.86363 27.6823C11.5561 28.3742 13.3675 28.7307 15.1966 28.7317C18.9721 28.7233 22.5903 27.2219 25.2581 24.5564C27.9259 21.891 29.4255 18.279 29.4283 14.5122C29.431 12.5692 29.0299 10.6468 28.2502 8.86639ZM15.1861 3.16811C16.8286 3.16793 18.4513 3.5261 19.9405 4.21752C19.5773 4.37405 19.1955 4.48339 18.8045 4.54283C17.5176 4.72868 16.3255 5.32472 15.4061 6.242C14.4866 7.15928 13.8892 8.34861 13.7029 9.63246C13.6212 10.3525 13.2929 11.0223 12.7736 11.5289C12.2543 12.0356 11.5757 12.3479 10.8524 12.4134C9.56553 12.5992 8.37342 13.1953 7.45399 14.1126C6.53457 15.0298 5.93713 16.2192 5.75085 17.503C5.68778 18.1876 5.395 18.831 4.91988 19.329C4.10011 17.6009 3.73185 15.694 3.84937 13.7857C3.96688 11.8775 4.56635 10.0299 5.59198 8.41488C6.61762 6.7999 8.03609 5.47 9.71539 4.54897C11.3947 3.62794 13.2802 3.14569 15.1966 3.14712L15.1861 3.16811ZM6.48715 21.8581C6.61338 21.7426 6.7396 21.6377 6.86582 21.5118C7.80162 20.6066 8.40229 19.4117 8.56984 18.1222C8.63777 17.3973 8.96218 16.7202 9.48496 16.2122C9.98801 15.6898 10.6651 15.3688 11.3888 15.3098C12.6757 15.1239 13.8678 14.5279 14.7872 13.6106C15.7066 12.6933 16.3041 11.504 16.4904 10.2201C16.5359 9.46194 16.862 8.74764 17.4055 8.21576C17.9209 7.70349 18.6045 7.39418 19.3304 7.34475C20.5126 7.18247 21.6152 6.65814 22.486 5.8441C23.4775 6.66481 24.3176 7.65212 24.9684 8.76145C24.9284 8.81534 24.8825 8.86462 24.8316 8.90837C24.3295 9.43538 23.6533 9.76339 22.9278 9.83185C21.6396 10.0144 20.4457 10.6094 19.5257 11.5273C18.6056 12.4452 18.0093 13.6363 17.8262 14.9215C17.7521 15.6439 17.4299 16.3186 16.9142 16.8311C16.3986 17.3437 15.7211 17.6626 14.9967 17.7339C13.7061 17.9183 12.5096 18.5132 11.5848 19.4301C10.6601 20.347 10.0564 21.5371 9.86363 22.8235C9.80702 23.3364 9.63048 23.8288 9.34822 24.2612C8.269 23.6219 7.30244 22.8101 6.48715 21.8581ZM15.1861 25.9088C14.1187 25.9099 13.0565 25.7616 12.0305 25.468C12.3814 24.8153 12.6096 24.1039 12.7037 23.3692C12.7774 22.6484 13.0981 21.975 13.6116 21.4626C14.1252 20.9503 14.8001 20.6303 15.5226 20.5568C16.8114 20.373 18.0059 19.7779 18.9274 18.8605C19.8489 17.943 20.4479 16.7525 20.6347 15.4672C20.7084 14.7463 21.0291 14.0729 21.5427 13.5606C22.0562 13.0482 22.7312 12.7283 23.4537 12.6548C24.4235 12.5289 25.3479 12.1687 26.1465 11.6053C26.5899 13.2822 26.6424 15.0381 26.3 16.7384C25.9576 18.4386 25.2294 20.038 24.1712 21.4139C23.113 22.7898 21.753 23.9055 20.1955 24.6756C18.638 25.4457 16.9243 25.8496 15.1861 25.8563V25.9088Z" fill="#1D2130"/>
</g>
</svg>
