<svg width="142" height="29" viewBox="0 0 142 29" fill="none" xmlns="http://www.w3.org/2000/svg">
<g opacity="0.6">
<path d="M21.29 12.79C20.8935 13.1901 20.5899 13.673 20.4007 14.2043C20.2115 14.7356 20.1415 15.3022 20.1956 15.8637L20.1768 15.8448C20.2324 16.5058 20.1436 17.171 19.9164 17.7939C19.6893 18.4169 19.3293 18.9827 18.8617 19.4517C18.3941 19.9207 17.83 20.2818 17.209 20.5096C16.5879 20.7374 15.9247 20.8265 15.2657 20.7707L15.2845 20.7896C14.4963 20.716 13.7045 20.8881 13.0173 21.2823C12.3301 21.6766 11.7809 22.2738 11.4445 22.9927C11.1081 23.7115 11.0009 24.5168 11.1376 25.299C11.2742 26.0811 11.6481 26.802 12.2081 27.3632C12.7682 27.9244 13.4872 28.2988 14.2671 28.4351C15.047 28.5715 15.8499 28.4633 16.5662 28.1252C17.2825 27.7871 17.8775 27.2357 18.2699 26.546C18.6624 25.8564 18.8332 25.0621 18.7591 24.2716L18.779 24.2905C18.7234 23.6295 18.8122 22.9643 19.0394 22.3413C19.2665 21.7184 19.6264 21.1526 20.0941 20.6836C20.5617 20.2145 21.1257 19.8535 21.7468 19.6257C22.3679 19.3979 23.0311 19.3087 23.6901 19.3645L23.6702 19.3456C24.3141 19.4037 24.9622 19.2978 25.5545 19.0378C26.1467 18.7777 26.6639 18.3719 27.0582 17.858C27.4525 17.3441 27.711 16.7386 27.8098 16.0978C27.9087 15.457 27.8447 14.8015 27.6237 14.192C27.4027 13.5826 27.032 13.039 26.5458 12.6116C26.0596 12.1842 25.4737 11.8868 24.8424 11.747C24.211 11.6072 23.5548 11.6295 22.9343 11.8118C22.3139 11.9941 21.7494 12.3306 21.2931 12.79H21.29Z" fill="#1D2130"/>
<path d="M13.5718 18.3151L13.5519 18.2962C14.112 18.3528 14.6776 18.2838 15.2079 18.0943C15.7381 17.9048 16.2198 17.5995 16.618 17.2004C17.0162 16.8013 17.321 16.3184 17.5103 15.7867C17.6997 15.2549 17.7688 14.6877 17.7128 14.1258L17.7327 14.1447C17.6771 13.4838 17.7659 12.8186 17.9931 12.1956C18.2202 11.5726 18.5802 11.0069 19.0478 10.5378C19.5154 10.0688 20.0795 9.70778 20.7005 9.47996C21.3216 9.25214 21.9848 9.16301 22.6438 9.21881L22.6239 9.19992C23.4123 9.27418 24.2042 9.10271 24.8918 8.7089C25.5794 8.3151 26.1292 7.71813 26.4661 6.99942C26.803 6.28072 26.9107 5.47527 26.7744 4.69292C26.6382 3.91058 26.2646 3.18945 25.7047 2.62787C25.1449 2.0663 24.4259 1.69162 23.6459 1.55496C22.8659 1.4183 22.0629 1.52629 21.3463 1.86422C20.6298 2.20215 20.0346 2.75356 19.642 3.44323C19.2494 4.13291 19.0784 4.92728 19.1525 5.71798L19.1336 5.69805C19.1895 6.35906 19.1007 7.02432 18.8737 7.64738C18.6466 8.27043 18.2866 8.83626 17.819 9.30534C17.3513 9.77442 16.7872 10.1354 16.166 10.3632C15.5448 10.591 14.8816 10.6799 14.2226 10.624L14.2414 10.6439C13.6813 10.5873 13.1157 10.6562 12.5854 10.8458C12.0551 11.0353 11.5735 11.3406 11.1753 11.7397C10.7771 12.1388 10.4723 12.6217 10.283 13.1534C10.0936 13.6851 10.0244 14.2524 10.0805 14.8143L10.0616 14.7954C10.1171 15.4563 10.0281 16.1214 9.80088 16.7443C9.57368 17.3672 9.21373 17.9328 8.74615 18.4018C8.27856 18.8708 7.71459 19.2319 7.09358 19.4598C6.47257 19.6876 5.80947 19.7769 5.15053 19.7213L5.16936 19.7402C4.38103 19.6659 3.58906 19.8374 2.90146 20.2312C2.21386 20.625 1.66411 21.222 1.3272 21.9407C0.990286 22.6594 0.882613 23.4648 1.01887 24.2472C1.15512 25.0295 1.52866 25.7506 2.08855 26.3122C2.64843 26.8738 3.3674 27.2485 4.14739 27.3851C4.92737 27.5218 5.7304 27.4138 6.44694 27.0759C7.16349 26.7379 7.75866 26.1865 8.15127 25.4969C8.54389 24.8072 8.71485 24.0128 8.64081 23.2221L8.66069 23.241C8.60506 22.58 8.69392 21.9148 8.92105 21.2919C9.14819 20.6689 9.50813 20.1032 9.97576 19.6341C10.4434 19.1651 11.0074 18.804 11.6285 18.5762C12.2496 18.3484 12.9128 18.2593 13.5718 18.3151Z" fill="#1D2130"/>
<path d="M6.55987 16.2089C6.95642 15.8089 7.26003 15.326 7.44902 14.7946C7.63802 14.2633 7.70774 13.6967 7.6532 13.1352L7.67308 13.1541C7.61741 12.493 7.70631 11.8276 7.93356 11.2044C8.16082 10.5813 8.52095 10.0154 8.98881 9.54637C9.45668 9.0773 10.021 8.71631 10.6423 8.48864C11.2637 8.26096 11.9271 8.17208 12.5863 8.2282L12.5664 8.20931C13.3544 8.28336 14.1461 8.1118 14.8334 7.71802C15.5207 7.32425 16.0701 6.72742 16.4068 6.00894C16.7435 5.29046 16.8511 4.4853 16.7148 3.70325C16.5786 2.9212 16.2052 2.20034 15.6455 1.63897C15.0858 1.0776 14.3671 0.703047 13.5874 0.566389C12.8077 0.429731 12.005 0.537622 11.2887 0.875346C10.5724 1.21307 9.97733 1.76419 9.58474 2.45354C9.19215 3.1429 9.0211 3.93694 9.09493 4.72738L9.0761 4.70849C9.13173 5.36946 9.04287 6.03464 8.81574 6.65761C8.5886 7.28059 8.22866 7.84633 7.76103 8.31537C7.29341 8.78441 6.72936 9.14544 6.10827 9.37326C5.48717 9.60108 4.82399 9.6902 4.16501 9.63441L4.18384 9.6533C3.53995 9.59538 2.8919 9.70142 2.29974 9.96159C1.70758 10.2218 1.19048 10.6276 0.796347 11.1416C0.402215 11.6556 0.143805 12.2611 0.0450646 12.9019C-0.0536755 13.5427 0.0104481 14.1981 0.231494 14.8075C0.45254 15.4168 0.823356 15.9604 1.30958 16.3877C1.7958 16.815 2.3817 17.1124 3.01298 17.2521C3.64427 17.3919 4.3005 17.3695 4.92089 17.1872C5.54128 17.0048 6.10574 16.6684 6.56196 16.2089H6.55987Z" fill="#1D2130"/>
<path d="M38.9695 5.74212H42.0768V20.9092H38.9695V5.74212Z" fill="#1D2130"/>
<path d="M43.8367 15.7157C43.8323 14.6258 44.1506 13.559 44.7511 12.6506C45.3517 11.7422 46.2075 11.0331 47.2103 10.6129C48.213 10.1928 49.3174 10.0806 50.3838 10.2906C51.4501 10.5005 52.4303 11.0232 53.2003 11.7924C53.9702 12.5616 54.4952 13.5426 54.7088 14.6113C54.9225 15.68 54.815 16.7883 54.4002 17.7957C53.9853 18.8031 53.2817 19.6644 52.3785 20.2704C51.4753 20.8764 50.413 21.1999 49.3263 21.1999C48.605 21.2082 47.8892 21.0721 47.2209 20.7997C46.5526 20.5273 45.9451 20.124 45.434 19.6134C44.9229 19.1028 44.5184 18.4951 44.2441 17.8258C43.9698 17.1566 43.8313 16.4393 43.8367 15.7157ZM51.7086 15.7157C51.6957 15.2459 51.5449 14.7903 51.2752 14.406C51.0056 14.0216 50.6289 13.7255 50.1924 13.5547C49.7558 13.3839 49.2788 13.346 48.8208 13.4456C48.3629 13.5453 47.9444 13.7781 47.6177 14.115C47.291 14.4519 47.0705 14.878 46.9839 15.3399C46.8973 15.8018 46.9483 16.279 47.1306 16.712C47.313 17.145 47.6185 17.5144 48.009 17.7741C48.3995 18.0339 48.8577 18.1724 49.3263 18.1724C49.6472 18.181 49.9664 18.1228 50.2638 18.0015C50.5612 17.8802 50.8303 17.6984 51.0541 17.4676C51.2779 17.2367 51.4516 16.9619 51.5643 16.6604C51.6769 16.3589 51.7261 16.0372 51.7086 15.7157Z" fill="#1D2130"/>
<path d="M67.2004 10.5211V20.3856C67.2004 23.8759 64.4864 25.3514 61.7316 25.3514C60.7617 25.4242 59.7905 25.2277 58.9246 24.7834C58.0587 24.3391 57.3314 23.6643 56.8226 22.8328L59.4738 21.2954C59.6877 21.7288 60.0284 22.0864 60.4504 22.3203C60.8724 22.5541 61.3556 22.6531 61.8352 22.604C62.1418 22.6466 62.4539 22.6196 62.7487 22.5248C63.0434 22.4301 63.313 22.2701 63.5378 22.0566C63.7625 21.8432 63.9365 21.5819 64.0469 21.2919C64.1574 21.0019 64.2014 20.6907 64.1757 20.3814V19.4317C63.8118 19.8782 63.3487 20.233 62.8234 20.4676C62.2981 20.7021 61.7253 20.8099 61.151 20.7823C59.7844 20.739 58.4882 20.1641 57.5367 19.1792C56.5853 18.1943 56.0532 16.8767 56.0532 15.5053C56.0532 14.1339 56.5853 12.8163 57.5367 11.8314C58.4882 10.8465 59.7844 10.2716 61.151 10.2284C61.7253 10.2007 62.2981 10.3085 62.8234 10.543C63.3487 10.7776 63.8118 11.1324 64.1757 11.579V10.5191L67.2004 10.5211ZM64.1767 15.5069C64.1976 15.0046 64.0682 14.5075 63.805 14.0797C63.5419 13.6518 63.1571 13.3127 62.7002 13.106C62.2433 12.8994 61.7351 12.8346 61.2412 12.92C60.7473 13.0054 60.2902 13.2372 59.9287 13.5854C59.5671 13.9336 59.3178 14.3824 59.2127 14.8739C59.1076 15.3655 59.1516 15.8773 59.339 16.3436C59.5264 16.8099 59.8486 17.2092 60.2642 17.4902C60.6798 17.7713 61.1697 17.9211 61.671 17.9205C61.9974 17.9434 62.3251 17.8974 62.6328 17.7855C62.9405 17.6737 63.2214 17.4984 63.4574 17.271C63.6935 17.0436 63.8795 16.7692 64.0033 16.4654C64.1272 16.1615 64.1863 15.835 64.1767 15.5069Z" fill="#1D2130"/>
<path d="M68.9602 15.7157C68.9558 14.6258 69.2741 13.559 69.8746 12.6506C70.4752 11.7422 71.331 11.0331 72.3337 10.6129C73.3365 10.1928 74.4409 10.0806 75.5073 10.2906C76.5736 10.5005 77.5538 11.0232 78.3238 11.7924C79.0937 12.5616 79.6187 13.5426 79.8323 14.6113C80.046 15.68 79.9385 16.7883 79.5237 17.7957C79.1088 18.8031 78.4052 19.6644 77.502 20.2704C76.5987 20.8764 75.5365 21.1999 74.4498 21.1999C73.7285 21.2082 73.0127 21.0721 72.3444 20.7997C71.6761 20.5273 71.0686 20.124 70.5575 19.6134C70.0464 19.1028 69.6419 18.4951 69.3676 17.8258C69.0933 17.1566 68.9548 16.4393 68.9602 15.7157ZM76.8321 15.7157C76.8192 15.2459 76.6684 14.7903 76.3987 14.406C76.1291 14.0216 75.7524 13.7255 75.3158 13.5547C74.8793 13.3839 74.4023 13.346 73.9443 13.4456C73.4864 13.5453 73.0679 13.7781 72.7412 14.115C72.4145 14.4519 72.194 14.878 72.1074 15.3399C72.0208 15.8018 72.0718 16.279 72.2542 16.712C72.4365 17.145 72.742 17.5144 73.1325 17.7741C73.523 18.0339 73.9812 18.1724 74.4498 18.1724C74.7707 18.181 75.0899 18.1228 75.3873 18.0015C75.6847 17.8802 75.9538 17.6984 76.1776 17.4676C76.4014 17.2367 76.5751 16.9619 76.6878 16.6604C76.8004 16.3589 76.8496 16.0372 76.8321 15.7157Z" fill="#1D2130"/>
<path d="M81.3885 7.73705C81.3885 7.3672 81.4979 7.00564 81.7028 6.69812C81.9076 6.39059 82.1988 6.1509 82.5395 6.00936C82.8801 5.86782 83.255 5.83079 83.6167 5.90294C83.9783 5.9751 84.3105 6.1532 84.5713 6.41474C84.832 6.67627 85.0096 7.00947 85.0815 7.37223C85.1535 7.73498 85.1166 8.11098 84.9754 8.45269C84.8343 8.7944 84.5954 9.08645 84.2888 9.29194C83.9822 9.49742 83.6217 9.6071 83.253 9.6071C82.76 9.60218 82.2886 9.40358 81.94 9.05394C81.5914 8.7043 81.3934 8.2315 81.3885 7.73705ZM81.7024 10.5211H84.8108V20.9103H81.6982L81.7024 10.5211Z" fill="#1D2130"/>
<path d="M98.228 15.7157C98.2639 16.4023 98.1641 17.0893 97.9344 17.7371C97.7047 18.3849 97.3496 18.9807 96.8895 19.4904C96.4294 20 95.8734 20.4135 95.2535 20.7068C94.6335 21.0002 93.9619 21.1678 93.2771 21.1999C92.7013 21.2314 92.1257 21.134 91.592 20.9147C91.0584 20.6955 90.5801 20.3599 90.1917 19.9322V25.0649H87.0844V10.5211H90.1917V11.4971C90.5802 11.0697 91.0586 10.7344 91.5922 10.5153C92.1259 10.2963 92.7014 10.1989 93.2771 10.2304C93.962 10.2624 94.6338 10.4299 95.2539 10.7233C95.874 11.0167 96.4301 11.4302 96.8902 11.94C97.3503 12.4498 97.7054 13.0459 97.935 13.6939C98.1646 14.3418 98.2642 15.029 98.228 15.7157ZM95.1206 15.7157C95.1085 15.2295 94.9536 14.7576 94.6754 14.3593C94.3973 13.9609 94.0081 13.6537 93.5567 13.476C93.1053 13.2984 92.6117 13.2582 92.1376 13.3606C91.6636 13.4629 91.2302 13.7033 90.8916 14.0515C90.5531 14.3997 90.3245 14.8403 90.2344 15.3182C90.1443 15.7961 90.1967 16.2901 90.3851 16.7382C90.5735 17.1864 90.8895 17.5689 91.2936 17.8378C91.6976 18.1067 92.1718 18.2501 92.6567 18.25C92.9896 18.2649 93.3219 18.209 93.6317 18.086C93.9416 17.9631 94.222 17.7758 94.4547 17.5365C94.6873 17.2972 94.8669 17.0113 94.9817 16.6975C95.0965 16.3837 95.1438 16.0491 95.1206 15.7157Z" fill="#1D2130"/>
<path d="M107.817 17.7925C107.817 20.182 105.746 21.1999 103.509 21.1999C102.606 21.282 101.698 21.0903 100.904 20.6496C100.11 20.2088 99.4661 19.5393 99.0555 18.7275L101.748 17.1901C101.856 17.5653 102.09 17.8917 102.41 18.1148C102.73 18.3379 103.117 18.4441 103.505 18.4158C104.25 18.4158 104.624 18.1871 104.624 17.7726C104.624 16.6287 99.5274 17.2321 99.5274 13.6379C99.5274 11.3722 101.434 10.2305 103.588 10.2305C104.398 10.2048 105.2 10.3974 105.91 10.7884C106.62 11.1793 107.213 11.7542 107.626 12.4531L104.975 13.8866C104.859 13.6145 104.665 13.3827 104.419 13.2202C104.172 13.0576 103.883 12.9715 103.588 12.9726C103.049 12.9726 102.717 13.1825 102.717 13.5539C102.722 14.7387 107.817 13.9485 107.817 17.7925Z" fill="#1D2130"/>
<path d="M119.168 10.5212V20.9103H116.06V19.9333C115.702 20.3644 115.247 20.7041 114.732 20.9244C114.217 21.1448 113.658 21.2396 113.099 21.201C111.007 21.201 109.228 19.7056 109.228 16.8984V10.5212H112.336V16.4419C112.31 16.6894 112.338 16.9395 112.418 17.1749C112.498 17.4104 112.628 17.6255 112.8 17.8053C112.971 17.9851 113.18 18.1252 113.411 18.216C113.642 18.3067 113.89 18.3459 114.137 18.3309C115.277 18.3309 116.063 17.6666 116.063 16.1911V10.5243L119.168 10.5212Z" fill="#1D2130"/>
<path d="M136.985 14.531V20.9093H133.878V14.8007C133.878 13.7618 133.381 13.0975 132.387 13.0975C131.351 13.0975 130.771 13.8247 130.771 15.0504V20.9093H127.664V14.8007C127.664 13.7618 127.167 13.0975 126.172 13.0975C125.137 13.0975 124.557 13.8247 124.557 15.0504V20.9093H121.45V10.5201H124.557V11.4751C124.879 11.0514 125.302 10.7155 125.787 10.4979C126.272 10.2803 126.803 10.188 127.333 10.2295C127.864 10.2034 128.394 10.3159 128.869 10.5561C129.345 10.7963 129.75 11.1559 130.046 11.6C130.39 11.1354 130.846 10.7661 131.371 10.5264C131.897 10.2867 132.474 10.1845 133.049 10.2295C135.427 10.2305 136.985 11.9337 136.985 14.531Z" fill="#1D2130"/>
<path d="M139.613 10.4572C140.887 10.4572 141.919 9.42164 141.919 8.14426C141.919 6.86689 140.887 5.83137 139.613 5.83137C138.34 5.83137 137.307 6.86689 137.307 8.14426C137.307 9.42164 138.34 10.4572 139.613 10.4572Z" fill="#1D2130"/>
</g>
</svg>
